<svg id="icon-logo" xmlns="http://www.w3.org/2000/svg" width="100" height="16" fill="none"><path fill="#0A224A" d="M0 14V0h2.494l6.162 4.543h.093L14.911 0h2.494v14h-2.978V3.916L10.2 6.892V14H7.223V6.892L2.978 3.916V14H0ZM20.201 14V0h2.979v14H20.2ZM25.968 14V0h3.016l9.42 10.064V0h2.978v14h-3.016l-9.42-10.084V14h-2.978ZM44.17 14V0h2.978v14H44.17ZM49.937 14V0h2.495l6.161 4.543h.093L64.848 0h2.495v14h-2.979V3.916l-4.226 2.976V14H57.16V6.892l-4.244-2.976V14h-2.979ZM69.022 14l5.994-14h4.598l5.994 14h-3.24l-1.265-2.957h-7.576L72.26 14h-3.24Zm5.584-5.502h5.417l-2.587-6.05h-.242l-2.588 6.05ZM87.286 14V0h2.978v11.454H100V14H87.286Z"/></svg>